<svg xmlns="http://www.w3.org/2000/svg" width="800" height="320" viewBox="0 0 800 320">
  <g transform="translate(0.5,0.5)" text-anchor="middle" font-size="14" font-family="sans-serif" font-weight="normal">
    <g transform="translate(4,14)">
      <g stroke="black" stroke-width="1" stroke-linecap="round">
        <line x2="791"/>
        <line y2="22"/>
        <line x2="791" y1="22" y2="22"/>
        <line x1="791" x2="791" y2="22"/>
        <line x1="692" x2="692" y2="2"/>
        <line x1="692" x2="692" y1="22" y2="20"/>
        <line x1="593" x2="593" y2="2"/>
        <line x1="593" x2="593" y1="22" y2="20"/>
        <line x1="494" x2="494" y2="2"/>
        <line x1="494" x2="494" y1="22" y2="20"/>
        <line x1="396" x2="396" y2="2"/>
        <line x1="396" x2="396" y1="22" y2="20"/>
        <line x1="297" x2="297" y2="2"/>
        <line x1="297" x2="297" y1="22" y2="20"/>
        <line x1="198" x2="198" y2="2"/>
        <line x1="198" x2="198" y1="22" y2="20"/>
        <line x1="99" x2="99" y2="2"/>
        <line x1="99" x2="99" y1="22" y2="20"/>
      </g>
      <g>
        <g/>
        <g transform="translate(49,-9)">
          <g transform="translate(692)">
            <text y="6">0</text>
          </g>
          <g transform="translate(0)">
            <text y="6">7</text>
          </g>
        </g>
        <g transform="translate(49,11)">
          <g transform="translate(346)">
            <text y="6">
              <tspan>all zeros</tspan>
            </text>
          </g>
        </g>
        <g transform="translate(49,29)"/>
      </g>
    </g>
    <g transform="translate(4,94)">
      <g stroke="black" stroke-width="1" stroke-linecap="round">
        <line x2="791"/>
        <line y2="22"/>
        <line x2="791" y1="22" y2="22"/>
        <line x1="791" x2="791" y2="22"/>
        <line x1="692" x2="692" y2="2"/>
        <line x1="692" x2="692" y1="22" y2="20"/>
        <line x1="593" x2="593" y2="2"/>
        <line x1="593" x2="593" y1="22" y2="20"/>
        <line x1="494" x2="494" y2="2"/>
        <line x1="494" x2="494" y1="22" y2="20"/>
        <line x1="396" x2="396" y2="2"/>
        <line x1="396" x2="396" y1="22" y2="20"/>
        <line x1="297" x2="297" y2="2"/>
        <line x1="297" x2="297" y1="22" y2="20"/>
        <line x1="198" x2="198" y2="2"/>
        <line x1="198" x2="198" y1="22" y2="20"/>
        <line x1="99" x2="99" y2="2"/>
        <line x1="99" x2="99" y1="22" y2="20"/>
      </g>
      <g>
        <g/>
        <g transform="translate(49,-9)">
          <g transform="translate(692)">
            <text y="6">8</text>
          </g>
          <g transform="translate(0)">
            <text y="6">15</text>
          </g>
        </g>
        <g transform="translate(49,11)">
          <g transform="translate(346)">
            <text y="6">
              <tspan>time stamp[7:0]</tspan>
            </text>
          </g>
        </g>
        <g transform="translate(49,29)"/>
      </g>
    </g>
    <g transform="translate(4,174)">
      <g stroke="black" stroke-width="1" stroke-linecap="round">
        <line x2="791"/>
        <line y2="22"/>
        <line x2="791" y1="22" y2="22"/>
        <line x1="791" x2="791" y2="22"/>
        <line x1="692" x2="692" y2="2"/>
        <line x1="692" x2="692" y1="22" y2="20"/>
        <line x1="593" x2="593" y2="2"/>
        <line x1="593" x2="593" y1="22" y2="20"/>
        <line x1="494" x2="494" y2="2"/>
        <line x1="494" x2="494" y1="22" y2="20"/>
        <line x1="396" x2="396" y2="2"/>
        <line x1="396" x2="396" y1="22" y2="20"/>
        <line x1="297" x2="297" y2="2"/>
        <line x1="297" x2="297" y1="22" y2="20"/>
        <line x1="198" x2="198" y2="2"/>
        <line x1="198" x2="198" y1="22" y2="20"/>
        <line x1="99" x2="99" y2="2"/>
        <line x1="99" x2="99" y1="22" y2="20"/>
      </g>
      <g>
        <g/>
        <g transform="translate(49,-9)">
          <g transform="translate(692)">
            <text y="6">16</text>
          </g>
          <g transform="translate(0)">
            <text y="6">23</text>
          </g>
        </g>
        <g transform="translate(49,11)">
          <g transform="translate(346)">
            <text y="6">
              <tspan>trace data or time stamp[15:8]</tspan>
            </text>
          </g>
        </g>
        <g transform="translate(49,29)"/>
      </g>
    </g>
    <g transform="translate(4,254)">
      <g stroke="black" stroke-width="1" stroke-linecap="round">
        <line x2="791"/>
        <line y2="22"/>
        <line x2="791" y1="22" y2="22"/>
        <line x1="791" x2="791" y2="22"/>
        <line x1="692" x2="692" y2="2"/>
        <line x1="692" x2="692" y1="22" y2="20"/>
        <line x1="593" x2="593" y2="22"/>
        <line x1="494" x2="494" y2="22"/>
        <line x1="396" x2="396" y2="22"/>
        <line x1="297" x2="297" y2="22"/>
        <line x1="198" x2="198" y2="22"/>
        <line x1="99" x2="99" y2="22"/>
      </g>
      <g>
        <g/>
        <g transform="translate(49,-9)">
          <g transform="translate(692)">
            <text y="6">24</text>
          </g>
          <g transform="translate(593)">
            <text y="6">25</text>
          </g>
          <g transform="translate(494)">
            <text y="6">26</text>
          </g>
          <g transform="translate(396)">
            <text y="6">27</text>
          </g>
          <g transform="translate(297)">
            <text y="6">28</text>
          </g>
          <g transform="translate(198)">
            <text y="6">29</text>
          </g>
          <g transform="translate(99)">
            <text y="6">30</text>
          </g>
          <g transform="translate(0)">
            <text y="6">31</text>
          </g>
        </g>
        <g transform="translate(49,11)">
          <g transform="translate(643)">
            <text y="6">
              <tspan>type</tspan>
            </text>
          </g>
          <g transform="translate(494)">
            <text y="6">
              <tspan>empty</tspan>
            </text>
          </g>
          <g transform="translate(396)">
            <text y="6">
              <tspan>underflow</tspan>
            </text>
          </g>
          <g transform="translate(297)">
            <text y="6">
              <tspan>almost empty</tspan>
            </text>
          </g>
          <g transform="translate(198)">
            <text y="6">
              <tspan>full</tspan>
            </text>
          </g>
          <g transform="translate(99)">
            <text y="6">
              <tspan>overflow</tspan>
            </text>
          </g>
          <g transform="translate(0)">
            <text y="6">
              <tspan>sync</tspan>
            </text>
          </g>
        </g>
        <g transform="translate(49,29)">
          <g>
            <g transform="translate(643)">
              <text y="6">
                <tspan>01: trace data</tspan>
              </text>
            </g>
            <g transform="translate(643,14)">
              <text y="6">
                <tspan>10: long time stamp</tspan>
              </text>
            </g>
            <g transform="translate(643,28)">
              <text y="6">
                <tspan>11: empty FIFO</tspan>
              </text>
            </g>
          </g>
        </g>
      </g>
    </g>
  </g>
</svg>

